<svg xmlns="http://www.w3.org/2000/svg" width="201" height="104.924" viewBox="0 0 201 104.924">
  <g id="logo_footer" data-name="logo footer" transform="translate(-261 -7)">
    <text id="Yeolmae" transform="translate(261 56)" fill="#fff" font-size="45" font-family="SegoeUI-Semibold, Segoe UI" font-weight="600"><tspan x="0" y="0">YEOLMAE</tspan></text>
    <g id="Layer_2" data-name="Layer 2" transform="translate(180.959 60.973)">
      <g id="Layer_1" data-name="Layer 1" transform="translate(80.041 6.027)">
        <path id="Path_13517" data-name="Path 13517" d="M6.535,11.549V35.1H19.826a3.541,3.541,0,0,1,2.441.769,2.532,2.532,0,0,1,.844,1.944,2.411,2.411,0,0,1-.844,1.929,3.556,3.556,0,0,1-2.441.738H4a4.235,4.235,0,0,1-3.014-.949A4.265,4.265,0,0,1,.055,36.52V11.549A4.385,4.385,0,0,1,.944,8.535a3.014,3.014,0,0,1,2.351-.995,3.119,3.119,0,0,1,2.4.98,4.25,4.25,0,0,1,.844,3.029Z" transform="translate(-0.041 4.026)" fill="#4a79fd"/>
        <path id="Path_13518" data-name="Path 13518" d="M30.688,7.562a17.209,17.209,0,0,1,8.65,2.049,13.2,13.2,0,0,1,5.455,5.8,19.756,19.756,0,0,1,1.854,8.831,21.639,21.639,0,0,1-1.01,6.827,14.618,14.618,0,0,1-3.014,5.32,13.306,13.306,0,0,1-5.018,3.481,18.264,18.264,0,0,1-6.781,1.191,17.632,17.632,0,0,1-6.781-1.191,13.4,13.4,0,0,1-5.018-3.451,14.512,14.512,0,0,1-3.014-5.365A21.293,21.293,0,0,1,15,24.214a20.781,20.781,0,0,1,1.07-6.857,14.663,14.663,0,0,1,3.1-5.289,13.186,13.186,0,0,1,4.867-3.345,17.858,17.858,0,0,1,6.646-1.16ZM40,24.214a15.069,15.069,0,0,0-1.145-6.163,8.71,8.71,0,0,0-3.27-3.948,9.042,9.042,0,0,0-4.9-1.356,8.8,8.8,0,0,0-3.632.738,7.866,7.866,0,0,0-2.863,2.155,10.308,10.308,0,0,0-1.9,3.6,16.184,16.184,0,0,0-.693,4.943,16.577,16.577,0,0,0,.693,4.988,10.368,10.368,0,0,0,1.959,3.692,8.379,8.379,0,0,0,2.924,2.2,8.785,8.785,0,0,0,3.6.723,8.951,8.951,0,0,0,4.626-1.251,8.861,8.861,0,0,0,3.361-3.888A15.07,15.07,0,0,0,40,24.214Z" transform="translate(9.103 3.839)" fill="#4a79fd"/>
        <path id="Path_13519" data-name="Path 13519" d="M59.286,36.838l-1.507-4.069H44.593l-1.507,4.159a13.849,13.849,0,0,1-1.507,3.27,2.426,2.426,0,0,1-2.095.859,3.089,3.089,0,0,1-2.185-.9,2.788,2.788,0,0,1-.949-2.065,4.416,4.416,0,0,1,.226-1.356c.151-.482.392-1.13.723-1.974l8.288-21.007c.226-.6.512-1.326.844-2.185a10.8,10.8,0,0,1,1.055-2.095,4.114,4.114,0,0,1,1.507-1.356,5.169,5.169,0,0,1,4.521,0,4.189,4.189,0,0,1,1.507,1.326,9.041,9.041,0,0,1,.829,1.778c.256.618.588,1.507.995,2.5L65.3,34.607a10.308,10.308,0,0,1,.98,3.466,2.863,2.863,0,0,1-.934,2.065,3.014,3.014,0,0,1-2.26.934,2.818,2.818,0,0,1-1.326-.286,2.592,2.592,0,0,1-.919-.738,6.811,6.811,0,0,1-.814-1.507C59.738,37.878,59.5,37.29,59.286,36.838ZM46.371,27.8h9.66L51.163,14.444Z" transform="translate(21.488 3.85)" fill="#4a79fd"/>
        <path id="Path_13520" data-name="Path 13520" d="M90.329,9.961H85.808V40.6c0,2.833-1.175,4.265-3.541,4.265a4.7,4.7,0,0,1-1.507-.256,3.858,3.858,0,0,1-1.326-.814,7.88,7.88,0,0,1-1.145-1.281c-.362-.5-.708-.995-1.055-1.507L64.862,22.137V41.11a4.054,4.054,0,0,1-.859,2.8,2.878,2.878,0,0,1-2.215.949,2.8,2.8,0,0,1-2.23-.964,4.114,4.114,0,0,1-.844-2.788V16.14a6.977,6.977,0,0,1,.437-2.5,3.481,3.481,0,0,1,1.311-1.582,3.8,3.8,0,0,1,2.095-.633,3.617,3.617,0,0,1,1.507.286,4.009,4.009,0,0,1,1.1.769,8.62,8.62,0,0,1,.964,1.266l1.025,1.612L79.765,34.419V9.961H75.245l3.767-4.988L82.794,0l3.767,4.973Z" transform="translate(34.381 0)" fill="#4a79fd"/>
      </g>
    </g>
  </g>
</svg>
