<svg xmlns="http://www.w3.org/2000/svg" width="224" height="40" viewBox="0 0 224 40">
  <g id="logo" transform="translate(-261 -13)">
    <text id="Yeolmae" transform="translate(261 45)" fill="#fff" font-size="30" font-family="SegoeUI-Semibold, Segoe UI" font-weight="600"><tspan x="0" y="0">YEOLMAE</tspan></text>
    <g id="Layer_2" data-name="Layer 2" transform="translate(324.959 10.6)">
      <g id="Layer_1" data-name="Layer 1" transform="translate(80.041 6.027)">
        <path id="Path_13517" data-name="Path 13517" d="M4.206,10.111V25.221h8.526a2.272,2.272,0,0,1,1.566.493,1.624,1.624,0,0,1,.541,1.247A1.547,1.547,0,0,1,14.3,28.2a2.281,2.281,0,0,1-1.566.474H2.582a2.716,2.716,0,0,1-1.933-.609,2.736,2.736,0,0,1-.6-1.933V10.111A2.813,2.813,0,0,1,.62,8.178,1.933,1.933,0,0,1,2.128,7.54a2,2,0,0,1,1.537.628,2.726,2.726,0,0,1,.541,1.943Z" transform="translate(-0.041 -0.264)" fill="#4a79fd"/>
        <path id="Path_13518" data-name="Path 13518" d="M25.063,7.56a11.04,11.04,0,0,1,5.549,1.315,8.468,8.468,0,0,1,3.5,3.722A12.673,12.673,0,0,1,35.3,18.261a13.881,13.881,0,0,1-.648,4.379,9.377,9.377,0,0,1-1.933,3.412A8.536,8.536,0,0,1,29.5,28.286a11.716,11.716,0,0,1-4.35.764,11.31,11.31,0,0,1-4.35-.764,8.594,8.594,0,0,1-3.219-2.214,9.309,9.309,0,0,1-1.933-3.441A13.659,13.659,0,0,1,15,18.242a13.331,13.331,0,0,1,.686-4.4,9.406,9.406,0,0,1,1.991-3.393A8.459,8.459,0,0,1,20.8,8.3a11.455,11.455,0,0,1,4.263-.744Zm5.974,10.682a9.667,9.667,0,0,0-.735-3.954,5.587,5.587,0,0,0-2.1-2.533,5.8,5.8,0,0,0-3.142-.87,5.646,5.646,0,0,0-2.33.474A5.046,5.046,0,0,0,20.9,12.741a6.612,6.612,0,0,0-1.218,2.31,10.382,10.382,0,0,0-.445,3.171,10.634,10.634,0,0,0,.445,3.2,6.651,6.651,0,0,0,1.257,2.368A5.375,5.375,0,0,0,22.811,25.2a5.636,5.636,0,0,0,2.31.464,5.742,5.742,0,0,0,2.968-.8,5.684,5.684,0,0,0,2.156-2.494A9.667,9.667,0,0,0,31.037,18.242Z" transform="translate(0.462 -0.252)" fill="#4a79fd"/>
        <path id="Path_13519" data-name="Path 13519" d="M51.063,26.354l-.967-2.61H41.638l-.967,2.668a8.884,8.884,0,0,1-.967,2.1,1.556,1.556,0,0,1-1.344.551,1.982,1.982,0,0,1-1.4-.58,1.788,1.788,0,0,1-.609-1.324,2.833,2.833,0,0,1,.145-.87c.1-.309.251-.725.464-1.266l5.317-13.476c.145-.387.329-.851.541-1.4A6.931,6.931,0,0,1,43.494,8.8a2.639,2.639,0,0,1,.967-.87,3.316,3.316,0,0,1,2.9,0,2.687,2.687,0,0,1,.967.851,5.8,5.8,0,0,1,.532,1.141c.164.4.377.967.638,1.6l5.423,13.4a6.612,6.612,0,0,1,.628,2.223,1.837,1.837,0,0,1-.6,1.324,1.933,1.933,0,0,1-1.45.6,1.808,1.808,0,0,1-.851-.184,1.663,1.663,0,0,1-.59-.474,4.369,4.369,0,0,1-.522-.967C51.353,27.021,51.2,26.644,51.063,26.354Zm-8.285-5.8h6.2l-3.122-8.565Z" transform="translate(0.752 -0.253)" fill="#4a79fd"/>
        <path id="Path_13520" data-name="Path 13520" d="M78.991,6.39h-2.9V26.043c0,1.817-.754,2.736-2.272,2.736a3.016,3.016,0,0,1-.967-.164A2.475,2.475,0,0,1,72,28.092a5.055,5.055,0,0,1-.735-.822c-.232-.319-.454-.638-.677-.967L62.654,14.2V26.371a2.6,2.6,0,0,1-.551,1.8,1.846,1.846,0,0,1-1.421.609,1.8,1.8,0,0,1-1.431-.619,2.639,2.639,0,0,1-.541-1.788V10.353a4.476,4.476,0,0,1,.28-1.6,2.233,2.233,0,0,1,.841-1.015,2.436,2.436,0,0,1,1.344-.406,2.32,2.32,0,0,1,.967.184A2.572,2.572,0,0,1,62.847,8a5.53,5.53,0,0,1,.619.812l.657,1.034,8.091,12.229V6.39h-2.9l2.417-3.2L74.158,0l2.417,3.19Z" transform="translate(1.009 0)" fill="#4a79fd"/>
      </g>
    </g>
  </g>
</svg>
